<?xml version="1.0" encoding="UTF-8"?>
<svg id="Layer_1" xmlns="http://www.w3.org/2000/svg" version="1.1" viewBox="0 0 32 32">
  <!-- Generator: Adobe Illustrator 29.8.4, SVG Export Plug-In . SVG Version: 2.1.1 Build 6)  -->
  <defs>
    <style>
      .st0 {
        fill: #ec4899;
      }

      .st1 {
        fill: #28284f;
      }
    </style>
  </defs>
  <path class="st0" d="M15.7,26.7C7.6,19.3,3.2,15.2,3.2,11s3-6.5,6.5-6.5,3.9.9,5.3,2.4l1,1.1.9-1.1c1.3-1.6,3.3-2.5,5.2-2.6,0,0,.2,0,.3,0,3.4,0,6.3,2.8,6.5,6.2.2,4.3-4.1,8.5-11.8,16.3l-.6.6-.7-.6Z"/>
  <path class="st1" d="M22.3,5.5c2.7,0,5.1,2.2,5.2,5,.2,3.7-3.9,7.7-11.2,15.1-7.7-7-11.9-10.9-11.9-14.6s2.4-5.2,5.2-5.2,3.2.7,4.3,2l2,2.1,1.9-2.2c1.1-1.3,2.7-2.1,4.2-2.2,0,0,.2,0,.2,0M22.3,2.9c-.1,0-.2,0-.3,0-2.4.1-4.6,1.4-6.1,3.1-1.6-1.7-3.8-2.8-6.2-2.8-4.3,0-7.8,3.5-7.8,7.8s4.6,9,13.1,16.8l1.5,1.3,1.4-1.4c8.2-8.2,12.5-12.5,12.3-17.4-.2-4.1-3.7-7.4-7.8-7.4h0Z"/>
</svg>